<mxfile host="app.diagrams.net" modified="2023-08-19T21:36:35.351Z" agent="Mozilla/5.0 (X11; Ubuntu; Linux x86_64; rv:109.0) Gecko/20100101 Firefox/115.0" etag="tuQjL27z0eaDhkf8PsMQ" version="21.6.8" type="github">
  <diagram id="C5RBs43oDa-KdzZeNtuy" name="Page-1">
    <mxGraphModel dx="1429" dy="751" grid="1" gridSize="10" guides="1" tooltips="1" connect="1" arrows="1" fold="1" page="1" pageScale="1" pageWidth="827" pageHeight="1169" math="0" shadow="0">
      <root>
        <mxCell id="WIyWlLk6GJQsqaUBKTNV-0" />
        <mxCell id="WIyWlLk6GJQsqaUBKTNV-1" parent="WIyWlLk6GJQsqaUBKTNV-0" />
        <mxCell id="zuQ5rthRJyIhxPAOAIs5-15" value="" style="edgeStyle=orthogonalEdgeStyle;rounded=0;orthogonalLoop=1;jettySize=auto;html=1;" edge="1" parent="WIyWlLk6GJQsqaUBKTNV-1" source="zuQ5rthRJyIhxPAOAIs5-0" target="zuQ5rthRJyIhxPAOAIs5-1">
          <mxGeometry relative="1" as="geometry" />
        </mxCell>
        <mxCell id="zuQ5rthRJyIhxPAOAIs5-0" value="Start" style="strokeWidth=2;html=1;shape=mxgraph.flowchart.start_1;whiteSpace=wrap;" vertex="1" parent="WIyWlLk6GJQsqaUBKTNV-1">
          <mxGeometry x="240" y="20" width="100" height="60" as="geometry" />
        </mxCell>
        <mxCell id="zuQ5rthRJyIhxPAOAIs5-11" value="" style="edgeStyle=orthogonalEdgeStyle;rounded=0;orthogonalLoop=1;jettySize=auto;html=1;entryX=0.5;entryY=0;entryDx=0;entryDy=0;" edge="1" parent="WIyWlLk6GJQsqaUBKTNV-1" source="zuQ5rthRJyIhxPAOAIs5-1" target="zuQ5rthRJyIhxPAOAIs5-3">
          <mxGeometry relative="1" as="geometry" />
        </mxCell>
        <mxCell id="zuQ5rthRJyIhxPAOAIs5-1" value="string message" style="shape=parallelogram;html=1;strokeWidth=2;perimeter=parallelogramPerimeter;whiteSpace=wrap;rounded=1;arcSize=12;size=0.23;" vertex="1" parent="WIyWlLk6GJQsqaUBKTNV-1">
          <mxGeometry x="220" y="120" width="140" height="40" as="geometry" />
        </mxCell>
        <mxCell id="zuQ5rthRJyIhxPAOAIs5-22" value="" style="edgeStyle=orthogonalEdgeStyle;rounded=0;orthogonalLoop=1;jettySize=auto;html=1;" edge="1" parent="WIyWlLk6GJQsqaUBKTNV-1" source="zuQ5rthRJyIhxPAOAIs5-3" target="zuQ5rthRJyIhxPAOAIs5-20">
          <mxGeometry relative="1" as="geometry" />
        </mxCell>
        <mxCell id="zuQ5rthRJyIhxPAOAIs5-3" value="get pid" style="rounded=1;whiteSpace=wrap;html=1;absoluteArcSize=1;arcSize=14;strokeWidth=2;" vertex="1" parent="WIyWlLk6GJQsqaUBKTNV-1">
          <mxGeometry x="260" y="180" width="60" height="40" as="geometry" />
        </mxCell>
        <mxCell id="zuQ5rthRJyIhxPAOAIs5-17" value="yes" style="edgeStyle=orthogonalEdgeStyle;rounded=0;orthogonalLoop=1;jettySize=auto;html=1;" edge="1" parent="WIyWlLk6GJQsqaUBKTNV-1" source="zuQ5rthRJyIhxPAOAIs5-4" target="zuQ5rthRJyIhxPAOAIs5-7">
          <mxGeometry relative="1" as="geometry" />
        </mxCell>
        <mxCell id="zuQ5rthRJyIhxPAOAIs5-4" value="char != 0 ?" style="strokeWidth=2;html=1;shape=mxgraph.flowchart.decision;whiteSpace=wrap;" vertex="1" parent="WIyWlLk6GJQsqaUBKTNV-1">
          <mxGeometry x="240" y="320" width="100" height="100" as="geometry" />
        </mxCell>
        <mxCell id="zuQ5rthRJyIhxPAOAIs5-9" value="" style="edgeStyle=orthogonalEdgeStyle;rounded=0;orthogonalLoop=1;jettySize=auto;html=1;" edge="1" parent="WIyWlLk6GJQsqaUBKTNV-1" source="zuQ5rthRJyIhxPAOAIs5-7" target="zuQ5rthRJyIhxPAOAIs5-8">
          <mxGeometry relative="1" as="geometry" />
        </mxCell>
        <mxCell id="zuQ5rthRJyIhxPAOAIs5-7" value="send char bitwise to server" style="verticalLabelPosition=bottom;verticalAlign=top;html=1;shape=process;whiteSpace=wrap;rounded=1;size=0.14;arcSize=6;" vertex="1" parent="WIyWlLk6GJQsqaUBKTNV-1">
          <mxGeometry x="400" y="340" width="100" height="60" as="geometry" />
        </mxCell>
        <mxCell id="zuQ5rthRJyIhxPAOAIs5-19" style="edgeStyle=orthogonalEdgeStyle;rounded=0;orthogonalLoop=1;jettySize=auto;html=1;entryX=1;entryY=0.5;entryDx=0;entryDy=0;" edge="1" parent="WIyWlLk6GJQsqaUBKTNV-1" source="zuQ5rthRJyIhxPAOAIs5-8" target="zuQ5rthRJyIhxPAOAIs5-20">
          <mxGeometry relative="1" as="geometry">
            <mxPoint x="540" y="270" as="targetPoint" />
            <Array as="points">
              <mxPoint x="541" y="465" />
              <mxPoint x="541" y="265" />
            </Array>
          </mxGeometry>
        </mxCell>
        <mxCell id="zuQ5rthRJyIhxPAOAIs5-8" value="increase i" style="rounded=1;whiteSpace=wrap;html=1;verticalAlign=top;arcSize=6;" vertex="1" parent="WIyWlLk6GJQsqaUBKTNV-1">
          <mxGeometry x="390" y="450" width="120" height="30" as="geometry" />
        </mxCell>
        <mxCell id="zuQ5rthRJyIhxPAOAIs5-23" value="" style="edgeStyle=orthogonalEdgeStyle;rounded=0;orthogonalLoop=1;jettySize=auto;html=1;" edge="1" parent="WIyWlLk6GJQsqaUBKTNV-1" source="zuQ5rthRJyIhxPAOAIs5-20" target="zuQ5rthRJyIhxPAOAIs5-4">
          <mxGeometry relative="1" as="geometry" />
        </mxCell>
        <mxCell id="zuQ5rthRJyIhxPAOAIs5-20" value="pointer to char i in string" style="rounded=1;whiteSpace=wrap;html=1;absoluteArcSize=1;arcSize=14;strokeWidth=2;" vertex="1" parent="WIyWlLk6GJQsqaUBKTNV-1">
          <mxGeometry x="240" y="250" width="100" height="30" as="geometry" />
        </mxCell>
      </root>
    </mxGraphModel>
  </diagram>
</mxfile>
